<?xml version="1.0" encoding="UTF-8" standalone="no"?>
<svg
   xmlns:dc="http://purl.org/dc/elements/1.1/"
   xmlns:cc="http://creativecommons.org/ns#"
   xmlns:rdf="http://www.w3.org/1999/02/22-rdf-syntax-ns#"
   xmlns:svg="http://www.w3.org/2000/svg"
   xmlns="http://www.w3.org/2000/svg"
   id="svg8"
   version="1.1"
   viewBox="0 0 193.89462 52.270729"
   height="52.270729mm"
   width="193.89462mm">
  <defs
     id="defs2">
    <clipPath
       clipPathUnits="userSpaceOnUse"
       id="clipPath3873">
      <path
         d="M 0,595.276 H 595.276 V 0 H 0 Z"
         id="path3871" />
    </clipPath>
  </defs>
  <metadata
     id="metadata5">
    <rdf:RDF>
      <cc:Work
         rdf:about="">
        <dc:format>image/svg+xml</dc:format>
        <dc:type
           rdf:resource="http://purl.org/dc/dcmitype/StillImage" />
        <dc:title></dc:title>
      </cc:Work>
    </rdf:RDF>
  </metadata>
  <g
     transform="translate(35.787205,-112.13408)"
     id="layer1">
    <g
       transform="translate(-43.845235,-12.095555)"
       id="layer1-3">
      <g
         transform="matrix(0.35277777,0,0,-0.35277777,59.838009,146.68271)"
         id="g3875">
        <path
           id="path3877"
           style="fill:#ed1c24;fill-opacity:1;fill-rule:nonzero;stroke:none"
           d="m 0,0 c 5.764,-40.147 -22.108,-77.367 -62.256,-83.131 -40.146,-5.763 -77.365,22.109 -83.13,62.256 -5.764,40.147 22.109,77.367 62.256,83.131 C -42.983,68.02 -5.765,40.147 0,0" />
      </g>
      <g
         transform="matrix(0.35277777,0,0,-0.35277777,49.655679,157.46155)"
         id="g3879">
        <path
           id="path3881"
           style="fill:#9b1b20;fill-opacity:1;fill-rule:nonzero;stroke:none"
           d="m 0,0 c 0,0 1.983,19.097 -11.714,26.37 0,0 6.886,-1.216 9.278,-6.173 0,0 -1.067,19.111 -11.939,22.787 4.851,2.583 2.296,8.235 2.296,8.235 -2.742,-4.51 -6.336,-3.09 -6.336,-3.09 4.675,4.546 0.672,8.812 0.672,8.812 0,0 -2.569,-9.084 -42.846,-0.367 -7.409,1.603 -12.471,-4.352 -13.154,-11.334 -23.056,2.499 -22.497,-14.034 -22.497,-14.034 8.756,5.073 14.539,-0.319 15.6,-1.824 0,0 -1.083,-1.221 0.247,-2.561 13.632,-3.607 24.009,-15.65 24.82,-30.491 1.007,-18.433 -13.119,-34.191 -31.552,-35.199 -0.141,-0.008 -0.28,-0.008 -0.42,-0.014 7.147,-5.295 15.251,-9.29 23.935,-11.723 23.761,13.302 30.626,40.59 23.968,63.839 0,0 16.976,-40.365 -19.613,-64.93 8.275,-1.779 16.996,-2.152 25.863,-0.879 0.968,0.138 1.922,0.312 2.875,0.487 11.531,16.889 17.33,43.476 7.996,64.585 10.654,-24.093 6.989,-47.261 -2.44,-63.34 10.893,2.883 20.662,8.145 28.827,15.133 0.411,26.729 -11.202,44.99 -11.202,44.99 0,0 5.782,-2.717 7.336,-9.279" />
      </g>
      <g
         transform="matrix(0.35277777,0,0,-0.35277777,40.23369,137.28675)"
         id="g3883">
        <path
           id="path3885"
           style="fill:#9b1b20;fill-opacity:1;fill-rule:nonzero;stroke:none"
           d="m 0,0 -3.699,-0.001 c -0.356,0 -0.603,0.354 -0.478,0.687 0.946,2.524 3.77,11.256 -1.519,13.479 C 1.112,15.588 6.084,8.89 0.952,0.534 0.748,0.204 0.389,0 0,0 m -7.737,0.107 -1.861,0.098 c -0.386,0.021 -0.68,0.356 -0.648,0.742 l 1.058,12.838 c 0.021,0.249 0.292,0.392 0.507,0.267 1.491,-0.863 5.717,-3.423 1.814,-13.38 -0.139,-0.355 -0.488,-0.585 -0.87,-0.565 m -6.101,0.399 -1.729,0.198 c -0.414,0.047 -0.752,0.358 -0.836,0.766 -2.252,10.823 2.782,12.363 4.195,12.901 0.152,0.057 0.312,-0.062 0.298,-0.224 L -13.009,1.185 c -0.034,-0.42 -0.41,-0.728 -0.829,-0.679 m -5.977,0.8 -3.536,0.596 c -0.335,0.056 -0.615,0.285 -0.744,0.598 -3.736,9.134 2.294,14.952 8.789,12.412 -5.461,-1.285 -4.305,-9.997 -3.77,-12.856 0.083,-0.439 -0.298,-0.825 -0.739,-0.75 M 0.064,15.518 c -2.802,1.265 -6.517,0.844 -8.74,0.405 0.047,0.144 0.082,0.292 0.096,0.45 0.065,0.778 -0.325,1.483 -0.941,1.874 l 0.125,1.479 1.906,-0.161 0.155,1.845 -1.906,0.162 0.165,1.968 -1.845,0.155 -0.166,-1.968 -1.906,0.162 -0.156,-1.846 1.907,-0.161 -0.126,-1.48 c -0.674,-0.281 -1.176,-0.91 -1.242,-1.689 -0.013,-0.16 -0.003,-0.317 0.02,-0.47 -2.112,0.807 -5.727,1.861 -8.722,1.078 -8.511,-2.223 -6.905,-10.566 -5.122,-16.105 v 0.001 l 0.879,-3.051 c 17.131,-3.435 26.412,-2.23 26.412,-2.23 l 1.397,2.538 C 4.977,3.62 8.245,11.825 0.064,15.518" />
      </g>
      <g
         transform="matrix(0.35277777,0,0,-0.35277777,36.837534,131.47936)"
         id="g3887">
        <path
           id="path3889"
           style="fill:#9b1b20;fill-opacity:1;fill-rule:nonzero;stroke:none"
           d="m 0,0 c -0.047,-0.54 -0.521,-0.939 -1.061,-0.892 -0.538,0.046 -0.938,0.52 -0.891,1.059 0.046,0.539 0.52,0.939 1.058,0.892 C -0.354,1.013 0.046,0.539 0,0" />
      </g>
      <g
         transform="matrix(0.35277777,0,0,-0.35277777,40.281915,136.59118)"
         id="g3891">
        <path
           id="path3893"
           style="fill:#ffffff;fill-opacity:1;fill-rule:nonzero;stroke:none"
           d="m 0,0 -3.7,-0.001 c -0.356,0 -0.603,0.354 -0.478,0.686 0.947,2.525 3.77,11.256 -1.519,13.48 C 1.111,15.588 6.083,8.89 0.952,0.534 0.747,0.203 0.388,0 0,0 m -7.738,0.106 -1.861,0.099 c -0.386,0.021 -0.678,0.356 -0.647,0.741 l 1.058,12.839 c 0.02,0.249 0.292,0.392 0.506,0.267 1.491,-0.863 5.717,-3.423 1.816,-13.381 -0.141,-0.355 -0.49,-0.584 -0.872,-0.565 m -6.1,0.399 -1.729,0.198 c -0.415,0.048 -0.752,0.358 -0.837,0.766 -2.252,10.823 2.782,12.363 4.196,12.901 0.152,0.058 0.312,-0.061 0.298,-0.224 L -13.009,1.185 c -0.035,-0.421 -0.411,-0.728 -0.829,-0.68 m -5.978,0.801 -3.536,0.595 c -0.335,0.057 -0.614,0.285 -0.744,0.599 -3.736,9.134 2.295,14.952 8.789,12.412 -5.461,-1.286 -4.304,-9.997 -3.769,-12.856 0.082,-0.44 -0.299,-0.826 -0.74,-0.75 M 0.063,15.518 c -2.802,1.265 -6.517,0.844 -8.739,0.405 0.046,0.144 0.081,0.292 0.095,0.45 0.065,0.777 -0.325,1.482 -0.941,1.873 l 0.125,1.48 1.906,-0.161 0.155,1.845 -1.906,0.162 0.166,1.968 -1.845,0.155 -0.167,-1.968 -1.906,0.161 -0.155,-1.846 1.906,-0.16 -0.126,-1.481 c -0.674,-0.28 -1.176,-0.91 -1.24,-1.689 -0.015,-0.16 -0.004,-0.316 0.018,-0.47 -2.112,0.808 -5.727,1.862 -8.721,1.079 -8.512,-2.224 -6.905,-10.567 -5.123,-16.105 l 0.879,-3.051 C -8.424,-5.27 0.856,-4.064 0.856,-4.064 l 1.397,2.538 c 2.723,5.147 5.991,13.351 -2.19,17.044" />
      </g>
      <g
         transform="matrix(0.35277777,0,0,-0.35277777,36.885406,130.78397)"
         id="g3895">
        <path
           id="path3897"
           style="fill:#ffffff;fill-opacity:1;fill-rule:nonzero;stroke:none"
           d="m 0,0 c -0.047,-0.539 -0.521,-0.938 -1.06,-0.892 -0.539,0.046 -0.938,0.52 -0.892,1.059 0.046,0.54 0.52,0.939 1.059,0.892 C -0.354,1.013 0.046,0.539 0,0" />
      </g>
      <g
         transform="matrix(0.35277777,0,0,-0.35277777,49.846884,156.20824)"
         id="g3899">
        <path
           id="path3901"
           style="fill:#ffffff;fill-opacity:1;fill-rule:nonzero;stroke:none"
           d="m 0,0 c 0,0 1.983,19.097 -11.715,26.37 0,0 6.887,-1.216 9.279,-6.173 0,0 -1.067,19.11 -11.94,22.786 4.852,2.583 2.296,8.235 2.296,8.235 -2.742,-4.509 -6.335,-3.089 -6.335,-3.089 4.675,4.546 0.672,8.812 0.672,8.812 0,0 -2.569,-9.084 -42.846,-0.367 -7.41,1.603 -12.472,-4.353 -13.154,-11.335 -23.056,2.5 -22.497,-14.033 -22.497,-14.033 8.756,5.073 14.539,-0.32 15.6,-1.825 0,0 -1.083,-1.22 0.247,-2.56 13.632,-3.608 24.009,-15.65 24.82,-30.491 1.007,-18.433 -13.119,-34.192 -31.554,-35.199 -1.89,-0.104 -3.751,-0.042 -5.571,0.162 7.141,-6.237 15.46,-11.079 24.508,-14.19 27.447,12.22 35.615,41.451 28.547,66.13 0,0 18.245,-43.389 -23.878,-67.576 9.362,-2.533 19.378,-3.252 29.586,-1.786 0.156,0.023 0.307,0.055 0.463,0.078 13.431,16.439 21.052,45.701 10.951,68.547 11.59,-26.211 6.234,-51.325 -5.058,-67.41 11.927,2.788 22.576,8.407 31.34,16.029 C 5.203,-10.439 -7.336,9.279 -7.336,9.279 -7.336,9.279 -1.554,6.562 0,0" />
      </g>
      <g
         transform="matrix(0.35277777,0,0,-0.35277777,24.974676,141.01692)"
         id="g3903">
        <path
           id="path3905"
           style="fill:#ed1c24;fill-opacity:1;fill-rule:nonzero;stroke:none"
           d="m 0,0 c 1.558,7.75 13.995,-1.233 24.556,3.633 0,0 -0.91,-1.05 -1.312,-1.262 -1.671,-0.883 -7.401,-1.536 -7.401,-1.536 0,0 -0.276,-0.922 -0.948,-1.859 C 13.716,-2.666 6.733,-4.493 4.421,2.309 4.358,2.495 0.945,2.754 0.659,-0.456 Z" />
      </g>
      <g
         transform="matrix(0.35277777,0,0,-0.35277777,28.535861,141.4393)"
         id="g3907">
        <path
           id="path3909"
           style="fill:#ffffff;fill-opacity:1;fill-rule:nonzero;stroke:none"
           d="M 0,0 C 1.769,-0.2 3.365,1.072 3.564,2.841 L -2.841,3.564 C -3.041,1.795 -1.77,0.2 0,0" />
      </g>
      <g
         transform="matrix(0.35277777,0,0,-0.35277777,22.841111,140.17357)"
         id="g3911">
        <path
           id="path3913"
           style="fill:#ed1c24;fill-opacity:1;fill-rule:nonzero;stroke:none"
           d="m 0,0 c 4.778,-0.664 10.146,-6.245 9.516,-14.473 0,0 2.277,8.589 -6.708,15.531 z" />
      </g>
      <g
         transform="matrix(0.35277777,0,0,-0.35277777,24.526824,140.4075)"
         id="g3915">
        <path
           id="path3917"
           style="fill:#ed1c24;fill-opacity:1;fill-rule:nonzero;stroke:none"
           d="m 0,0 c 2.442,7.529 11.818,4.986 17.473,3.514 0,0 -15.478,7.129 -17.981,-3.762 z" />
      </g>
      <g
         transform="matrix(0.35277777,0,0,-0.35277777,34.227507,124.67872)"
         id="g3919">
        <path
           id="path3921"
           style="fill:#ffffff;fill-opacity:1;fill-rule:nonzero;stroke:none"
           d="m 0,0 c -3.468,0 -6.979,-0.252 -10.438,-0.749 -19.249,-2.764 -36.27,-12.857 -47.926,-28.423 -11.657,-15.565 -16.555,-34.739 -13.79,-53.986 5.112,-35.612 36.053,-62.465 71.97,-62.465 3.467,0 6.98,0.252 10.439,0.749 39.735,5.705 67.422,42.674 61.716,82.409 C 66.858,-26.854 35.918,0 0,0 m -0.184,-146.896 c -17.644,0 -34.769,6.368 -48.219,17.931 -13.581,11.674 -22.463,27.878 -25.012,45.626 -2.812,19.585 2.172,39.093 14.032,54.929 11.861,15.838 29.179,26.109 48.764,28.921 3.517,0.505 7.092,0.762 10.619,0.762 17.646,0 34.771,-6.368 48.221,-17.931 13.579,-11.675 22.463,-27.878 25.009,-45.626 5.806,-40.43 -22.363,-78.046 -62.792,-83.85 -3.52,-0.506 -7.093,-0.762 -10.622,-0.762" />
      </g>
      <g
         transform="matrix(0.35277777,0,0,-0.35277777,124.41666,149.80966)"
         id="g3923">
        <path
           id="path3925"
           style="fill:#4a4f57;fill-opacity:1;fill-rule:nonzero;stroke:none"
           d="M 0,0 V 1.062 H -8.414 V 0 h 2.116 v -24.359 h -2.116 v -1.057 H 0 v 1.057 H -2.12 V 0" />
      </g>
      <g
         transform="matrix(0.35277777,0,0,-0.35277777,156.3041,149.80966)"
         id="g3927">
        <path
           id="path3929"
           style="fill:#4a4f57;fill-opacity:1;fill-rule:nonzero;stroke:none"
           d="M 0,0 V 1.062 H -8.414 V 0 h 2.12 v -24.359 h -2.12 v -1.057 H 0 v 1.057 H -2.12 V 0" />
      </g>
      <g
         transform="matrix(0.35277777,0,0,-0.35277777,201.91513,149.80966)"
         id="g3931">
        <path
           id="path3933"
           style="fill:#4a4f57;fill-opacity:1;fill-rule:nonzero;stroke:none"
           d="M 0,0 V 1.062 H -8.417 V 0 h 2.123 v -24.359 h -2.123 v -1.057 H 0 v 1.057 H -2.118 V 0" />
      </g>
      <g
         transform="matrix(0.35277777,0,0,-0.35277777,132.93155,150.55448)"
         id="g3935">
        <path
           id="path3937"
           style="fill:#4a4f57;fill-opacity:1;fill-rule:nonzero;stroke:none"
           d="M 0,0 V 3.177 L -20.372,3.18 V 2.111 h 2.122 v -24.368 h -2.122 v -1.055 L -0.005,-23.3 H 0 v 3.197 h -1.063 v -2.154 h -13.013 v 11.102 h 10.433 v -1.033 h 1.057 v 3.165 h -1.057 v -1.04 H -14.076 V 2.105 H -1.063 V 0" />
      </g>
      <g
         transform="matrix(0.35277777,0,0,-0.35277777,78.129043,154.7761)"
         id="g3939">
        <path
           id="path3941"
           style="fill:#4a4f57;fill-opacity:1;fill-rule:nonzero;stroke:none"
           d="m 0,0 c -1.025,1.108 -2.959,2.352 -5.811,3.73 l -2.833,1.273 c -1.655,0.796 -2.765,1.556 -3.336,2.267 -0.583,0.719 -0.877,1.688 -0.877,2.918 0,3.027 1.747,4.542 5.246,4.542 0.589,0 1.306,-0.036 1.788,-0.087 l 0.011,0.006 c 0,0 2.639,-0.343 4.605,-0.834 v -2.12 h 1.086 l -0.002,3.112 c -2.931,0.746 -5.665,1.124 -7.783,1.124 -2.678,0 -4.836,-0.652 -6.483,-1.952 -1.655,-1.311 -2.482,-2.975 -2.482,-4.992 0,-2.846 2.462,-5.362 6.971,-7.542 l 2.622,-1.27 c 1.909,-0.929 3.15,-1.749 3.734,-2.469 0.601,-0.727 0.896,-1.797 0.896,-3.202 0,-3.363 -1.939,-5.039 -5.823,-5.039 -1.198,0 -4.901,0.122 -7.318,1.097 v 2.132 h -1.094 v -3.359 c 2.458,-0.799 5.22,-1.194 8.293,-1.194 3.076,0 5.527,0.716 7.349,2.163 1.846,1.455 2.77,3.29 2.77,5.511 C 1.529,-2.496 1.017,-1.1 0,0" />
      </g>
      <g
         transform="matrix(0.35277777,0,0,-0.35277777,91.054714,154.10812)"
         id="g3943">
        <path
           id="path3945"
           style="fill:#4a4f57;fill-opacity:1;fill-rule:nonzero;stroke:none"
           d="M 0,0 H -1.478 V 12.185 L 0,12.16 c 5.143,0 7.73,-1.587 7.748,-6.057 V 6.098 C 7.73,1.635 5.143,0 0,0 M 14.296,-12.175 5.963,-0.554 c 1.833,0.495 6.085,2.085 6.085,6.557 0,6.548 -6.807,7.243 -9.132,7.243 L -7.761,13.25 v -1.065 h 2.121 v -24.36 h -2.121 v -1.056 l 6.287,-0.007 -0.004,12.129 h 3.405 l 8.106,-12.129 6.267,0.007 v 1.056" />
      </g>
      <g
         transform="matrix(0.35277777,0,0,-0.35277777,82.999034,154.49949)"
         id="g3947">
        <path
           id="path3949"
           style="fill:#4a4f57;fill-opacity:1;fill-rule:nonzero;stroke:none"
           d="M 0,0 H -0.292" />
      </g>
      <g
         transform="matrix(0.35277777,0,0,-0.35277777,85.473982,151.95525)"
         id="g3951">
        <path
           id="path3953"
           style="fill:#4a4f57;fill-opacity:1;fill-rule:nonzero;stroke:none"
           d="m 0,0 c -0.021,-4.469 -2.602,-6.103 -7.747,-6.103 h -1.47 V 6.082 l 1.47,-0.02 C -2.602,6.062 -0.021,4.472 0,0 M -4.823,7.144 H -15.531 V 6.082 h 2.142 v -24.363 h -2.142 v -1.06 l 6.314,0.007 v 12.122 h 2.201 c 0.924,0.003 4.081,0.09 6.595,1.022 2.028,0.804 4.718,2.525 4.718,6.093 0,6.546 -6.798,7.241 -9.12,7.241" />
      </g>
      <g
         transform="matrix(0.35277777,0,0,-0.35277777,100.26034,155.54886)"
         id="g3955">
        <path
           id="path3957"
           style="fill:#4a4f57;fill-opacity:1;fill-rule:nonzero;stroke:none"
           d="M 0,0 5.662,12.459 11.402,0.024 Z M 19.441,-8.091 7.789,17.334 H 6.404 L -5.284,-8.091 H -7.27 v -1.058 l 2.998,-0.005 3.73,8.075 h 12.405 l 3.722,-8.075 5.525,0.005 v 1.058" />
      </g>
      <g
         transform="matrix(0.35277777,0,0,-0.35277777,141.63525,154.0964)"
         id="g3959">
        <path
           id="path3961"
           style="fill:#4a4f57;fill-opacity:1;fill-rule:nonzero;stroke:none"
           d="m 0,0 v -0.002 c -0.007,-4.219 -0.998,-7.342 -2.981,-9.224 -1.984,-1.871 -5.229,-2.963 -9.721,-2.963 l -1.907,-0.016 v 24.35 l 1.907,-0.009 c 4.492,0 7.737,-1.079 9.721,-2.955 C -0.998,7.299 -0.007,4.25 0,0.038 V 0.016 Z m 0.102,10.593 c -2.479,1.837 -5.766,2.669 -9.861,2.627 l -11.148,-0.009 v -1.06 h 2.122 v -24.359 h -2.122 v -1.057 l 11.148,-0.006 c 4.095,-0.047 7.382,0.793 9.861,2.63 2.954,2.186 4.447,5.618 4.447,10.149 v 1.02 c 0,4.527 -1.493,7.884 -4.447,10.065" />
      </g>
      <g
         transform="matrix(0.35277777,0,0,-0.35277777,151.38522,157.65413)"
         id="g3963">
        <path
           id="path3965"
           style="fill:#4a4f57;fill-opacity:1;fill-rule:nonzero;stroke:none"
           d="m 0,0 v -2.127 h -13.011 v 24.363 h 2.105 v 1.062 h -8.401 v -1.062 h 2.123 V -2.127 h -2.123 v -1.06 H 1.057 V 0" />
      </g>
      <g
         transform="matrix(0.35277777,0,0,-0.35277777,197.61494,157.39473)"
         id="g3967">
        <path
           id="path3969"
           style="fill:#4a4f57;fill-opacity:1;fill-rule:nonzero;stroke:none"
           d="M 0,0 H -1.058 V -2.199 C -2.56,-2.7 -3.985,-2.995 -5.339,-3.074 c -0.247,-0.009 -0.499,-0.054 -0.746,-0.054 -3.513,0 -6.278,1.082 -8.309,3.245 -2.042,2.167 -3.062,5.561 -3.062,9.438 0,2.313 0.357,4.297 0.991,6.032 0.418,1.147 0.943,2.208 1.637,3.097 1.764,2.257 4.187,3.591 7.274,3.591 0.084,0 0.677,-0.011 0.868,-0.021 0.347,-0.018 0.682,-0.038 0.986,-0.074 l 0.009,-0.004 c 0,0 2.599,-0.279 4.633,-0.846 v -2.327 h 1.06 L 0,22.14 c -2.928,0.751 -5.453,1.127 -7.573,1.127 -0.048,0 -0.093,-0.007 -0.147,-0.007 -0.051,0 -0.112,0.007 -0.171,0.007 -4.427,0 -7.881,-1.233 -10.357,-3.684 -2.493,-2.458 -3.737,-5.83 -3.737,-10.116 0,-4.322 1.298,-7.731 3.899,-10.238 0.411,-0.401 0.863,-0.76 1.329,-1.093 2.291,-1.664 5.17,-2.536 8.63,-2.635 0.212,-0.012 0.407,-0.027 0.63,-0.027 2.685,0 5.181,0.474 7.499,1.371" />
      </g>
      <g
         transform="matrix(0.35277777,0,0,-0.35277777,176.08654,149.61366)"
         id="g3971">
        <path
           id="path3973"
           style="fill:#4a4f57;fill-opacity:1;fill-rule:nonzero;stroke:none"
           d="m 0,0 c -2.669,0 -4.756,-1.131 -6.285,-3.384 -1.525,-2.256 -2.282,-5.354 -2.282,-9.294 0,-3.913 0.754,-7.009 2.264,-9.287 1.511,-2.277 3.58,-3.415 6.199,-3.415 2.44,0 4.406,0.901 5.885,2.702 1.856,2.251 2.782,5.598 2.782,10.036 0,3.94 -0.762,7.025 -2.283,9.258 C 4.742,-1.131 2.646,0 0,0 m 0,1.194 c 4.038,0 7.233,-1.239 9.579,-3.721 2.346,-2.478 3.517,-5.858 3.517,-10.137 0,-4.352 -1.181,-7.763 -3.537,-10.23 -2.345,-2.47 -5.599,-3.705 -9.761,-3.705 -3.551,0 -6.447,1.019 -8.685,3.042 -2.808,2.559 -4.211,6.175 -4.211,10.862 0,4.285 1.171,7.669 3.514,10.15 2.361,2.493 5.55,3.739 9.584,3.739" />
      </g>
      <g
         transform="matrix(0.35277777,0,0,-0.35277777,170.80038,149.43279)"
         id="g3975">
        <path
           id="path3977"
           style="fill:#4a4f57;fill-opacity:1;fill-rule:nonzero;stroke:none"
           d="m 0,0 -3.268,-0.009 -7.107,-20.658 -6.164,19.599 h -1.896 l -6.887,-19.048 -6.065,20.114 h -5.936 v -1.066 h 2.128 l 7.763,-25.423 h 1.372 l 7.356,20.071 6.406,-20.071 h 1.326 L -2.13,-1.068 H 0" />
      </g>
      <g
         transform="matrix(0.35277777,0,0,-0.35277777,120.11958,149.43363)"
         id="g3979">
        <path
           id="path3981"
           style="fill:#4a4f57;fill-opacity:1;fill-rule:nonzero;stroke:none"
           d="m 0,0 -3.268,0.002 -7.112,-20.673 -6.159,19.605 h -1.902 L -25.324,-20.119 -31.391,0 h -5.934 v -1.066 h 2.125 l 7.771,-25.423 h 1.372 l 7.355,20.065 6.397,-20.065 h 1.329 l 8.842,25.423 H 0" />
      </g>
      <g
         transform="matrix(0.35277777,0,0,-0.35277777,187.99039,154.81572)"
         id="g3983">
        <path
           id="path3985"
           style="fill:#4a4f57;fill-opacity:1;fill-rule:nonzero;stroke:none"
           d="M 0,0 C -1.026,1.106 -2.957,2.354 -5.809,3.734 L -8.64,5.003 c -1.662,0.794 -2.77,1.552 -3.339,2.267 -0.586,0.712 -0.876,1.684 -0.876,2.916 0,3.029 1.751,4.544 5.25,4.544 0.58,0 1.306,-0.036 1.783,-0.089 l 0.009,0.008 c 0,0 2.64,-0.348 4.603,-0.838 v -2.119 h 1.088 v 3.11 c -2.923,0.749 -5.664,1.129 -7.784,1.129 -2.679,0 -4.84,-0.657 -6.481,-1.952 -1.655,-1.315 -2.482,-2.977 -2.482,-4.992 0,-2.848 2.46,-5.36 6.964,-7.542 L -7.277,0.18 c 1.909,-0.934 3.153,-1.759 3.739,-2.472 0.597,-0.73 0.891,-1.794 0.891,-3.204 0,-3.363 -1.936,-5.046 -5.82,-5.046 -1.203,0 -4.906,0.128 -7.321,1.1 v 2.131 h -1.091 v -3.357 c 2.451,-0.789 5.213,-1.198 8.291,-1.198 3.074,0 5.525,0.721 7.356,2.168 1.838,1.454 2.76,3.294 2.76,5.509 C 1.528,-2.494 1.021,-1.103 0,0" />
      </g>
      <g
         transform="matrix(0.35277777,0,0,-0.35277777,184.9625,148.67675)"
         id="g3987">
        <path
           id="path3989"
           style="fill:#4a4f57;fill-opacity:1;fill-rule:nonzero;stroke:none"
           d="M 0,0 4.038,4.497 H 8.223 L 1.059,0" />
      </g>
      <g
         transform="matrix(0.35277777,0,0,-0.35277777,72.217616,135.60796)"
         id="g3991">
        <path
           id="path3993"
           style="fill:#7d828c;fill-opacity:1;fill-rule:nonzero;stroke:none"
           d="M 0,0 H 2.154 V -24.724 H 0 v -1.07 l 8.417,0.005 v 1.065 H 6.389 v 11.264 h 10.585 v -1.048 h 1.072 v 3.21 h -1.072 v -1.054 H 6.389 V -0.007 H 19.591 V -2.142 H 20.67 V 1.082 L 0,1.083 Z" />
      </g>
      <g
         transform="matrix(0.35277777,0,0,-0.35277777,98.587049,142.58615)"
         id="g3995">
        <path
           id="path3997"
           style="fill:#7d828c;fill-opacity:1;fill-rule:nonzero;stroke:none"
           d="m 0,0 -15.786,20.862 -5.119,-0.006 V 19.77 h 2.153 V -4.954 h -2.153 v -1.079 h 4.029 V 16.135 L 0.183,-6.038 1.84,-6.033 V 19.77 h 2.147 v 1.086 l -3.996,0.006 z" />
      </g>
      <g
         transform="matrix(0.35277777,0,0,-0.35277777,125.98314,139.32468)"
         id="g3999">
        <path
           id="path4001"
           style="fill:#7d828c;fill-opacity:1;fill-rule:nonzero;stroke:none"
           d="m 0,0 -2.839,1.274 c -1.66,0.802 -2.775,1.56 -3.348,2.274 -0.584,0.717 -0.874,1.695 -0.874,2.926 0,3.041 1.75,4.56 5.256,4.56 0.59,0 1.316,-0.04 1.796,-0.084 l 0.005,0.006 c 0,0 2.653,-0.344 4.612,-0.843 V 7.987 h 1.098 v 3.125 c -2.939,0.75 -5.684,1.128 -7.806,1.128 -2.683,0 -4.847,-0.655 -6.499,-1.957 -1.665,-1.317 -2.494,-2.988 -2.494,-5.007 0,-2.859 2.472,-5.382 6.993,-7.569 l 2.631,-1.277 c 1.908,-0.934 3.156,-1.752 3.746,-2.476 0.59,-0.73 0.898,-1.798 0.898,-3.206 0,-3.374 -1.95,-5.057 -5.846,-5.057 -1.192,0 -4.912,0.126 -7.329,1.106 v 2.137 h -1.099 v -3.361 c 2.454,-0.808 5.225,-1.207 8.315,-1.207 3.079,0 5.538,0.721 7.365,2.168 1.846,1.456 2.772,3.302 2.772,5.522 0,1.698 -0.513,3.098 -1.524,4.199 C 4.804,-2.635 2.858,-1.382 0,0" />
      </g>
      <g
         transform="matrix(0.35277777,0,0,-0.35277777,108.98951,139.95308)"
         id="g4003">
        <path
           id="path4005"
           style="fill:#7d828c;fill-opacity:1;fill-rule:nonzero;stroke:none"
           d="m 0,0 v -0.016 -0.002 c -0.007,-4.278 -1.012,-7.446 -3.024,-9.355 -2.011,-1.897 -5.302,-3.005 -9.858,-3.005 l -1.934,-0.016 v 24.695 l 1.934,-0.009 c 4.556,0 7.847,-1.095 9.858,-2.997 C -1.012,7.386 -0.007,4.294 0,0.023 Z m 0.103,10.727 c -2.513,1.863 -5.847,2.707 -10,2.664 l -11.306,-0.01 v -1.073 h 2.152 v -24.704 h -2.152 v -1.072 l 11.306,-0.007 c 4.153,-0.048 7.487,0.805 10,2.668 2.997,2.217 4.51,5.697 4.51,10.292 V 0.52 c 0,4.59 -1.513,7.995 -4.51,10.207" />
      </g>
      <g
         transform="matrix(0.35277777,0,0,-0.35277777,136.96334,135.22279)"
         id="g4007">
        <path
           id="path4009"
           style="fill:#7d828c;fill-opacity:1;fill-rule:nonzero;stroke:none"
           d="m 0,0 h -19.532 v -3.304 h 1.093 v 1.848 H -4.648 L -20.371,-25.474 V -26.93 H -1.093 -0.447 0 v 3.351 h -1.093 v -1.658 H -15.646 L 0,-1.219 Z" />
      </g>
      <g
         transform="matrix(0.35277777,0,0,-0.35277777,118.54069,135.60552)"
         id="g4011">
        <path
           id="path4013"
           style="fill:#7d828c;fill-opacity:1;fill-rule:nonzero;stroke:none"
           d="m 0,0 h 2.088 v -15.8 c 0,-1.766 -0.072,-3.119 -0.216,-4.056 -0.17,-1.104 -0.621,-2.06 -1.351,-2.865 -1.424,-1.55 -3.435,-2.325 -6.034,-2.325 -2.508,0 -4.395,0.751 -5.662,2.253 -0.639,0.757 -1.038,1.562 -1.194,2.415 -0.156,0.841 -0.235,2.631 -0.235,5.371 V 0 h 2.062 v 1.068 h -8.464 V 0 h 2.229 v -15.62 c 0,-7.101 3.565,-10.652 10.695,-10.652 3.566,0 6.217,0.944 7.954,2.83 0.888,0.973 1.488,2.049 1.802,3.226 0.301,1.141 0.451,2.955 0.451,5.444 V 0 H 6.229 V 1.068 H 0 Z" />
      </g>
      <g
         transform="matrix(0.35277777,0,0,-0.35277777,87.480405,135.60552)"
         id="g4015">
        <path
           id="path4017"
           style="fill:#7d828c;fill-opacity:1;fill-rule:nonzero;stroke:none"
           d="m 0,0 h 2.088 v -15.8 c 0,-1.766 -0.072,-3.119 -0.216,-4.056 -0.17,-1.104 -0.621,-2.06 -1.351,-2.865 -1.424,-1.55 -3.435,-2.325 -6.034,-2.325 -2.508,0 -4.395,0.751 -5.662,2.253 -0.639,0.757 -1.038,1.562 -1.194,2.415 -0.156,0.841 -0.235,2.631 -0.235,5.371 V 0 h 2.062 v 1.068 h -8.464 V 0 h 2.229 v -15.62 c 0,-7.101 3.565,-10.652 10.695,-10.652 3.566,0 6.218,0.944 7.954,2.83 0.888,0.973 1.489,2.049 1.802,3.226 0.301,1.141 0.451,2.955 0.451,5.444 L 4.125,0 H 6.23 V 1.068 H 0 Z" />
      </g>
      <g
         transform="matrix(0.35277777,0,0,-0.35277777,138.01893,166.01056)"
         id="g4019">
        <path
           id="path4021"
           style="fill:#ffffff;fill-opacity:1;fill-rule:nonzero;stroke:none"
           d="m 0,0 c -0.746,0 -1.439,0.268 -1.979,0.774 l 0.005,-4.545 c 0.01,-0.52 0.204,-0.996 0.567,-1.357 0.131,-0.138 0.27,-0.24 0.417,-0.327 0.37,-0.172 0.773,-0.271 1.19,-0.271 H 173.339 L 179.057,0 H 0" />
      </g>
      <g
         transform="matrix(0.35277777,0,0,-0.35277777,201.95266,165.69433)"
         id="g4023">
        <path
           id="path4025"
           style="fill:#ed1c24;fill-opacity:1;fill-rule:nonzero;stroke:none"
           d="m 0,0 -181.23,0.005 c -0.533,0 -1.036,0.209 -1.407,0.588 -0.371,0.371 -0.571,0.869 -0.571,1.398 v 1.726 c 0.005,0.774 -0.279,1.498 -0.822,2.046 -0.55,0.548 -1.274,0.846 -2.047,0.846 h -181.9 l 6.61,-6.609 -6.618,-6.622 h 182.102 l -0.004,4.666 v 0.064 c -0.019,0.465 -0.214,0.932 -0.571,1.294 -0.136,0.136 -0.285,0.249 -0.443,0.345 -0.344,0.149 -0.711,0.239 -1.1,0.249 h -172.095 l -5.708,5.712 h 179.727 c 0.045,0 0.095,0 0.14,-0.009 h 0.05 c 0.461,-0.045 0.882,-0.257 1.208,-0.584 0.376,-0.371 0.574,-0.864 0.574,-1.398 l 0.005,-14.056 c -0.005,-0.765 0.294,-1.49 0.843,-2.042 0.548,-0.548 1.277,-0.85 2.051,-0.85 H -0.004 l -6.62,6.613 z m -181.029,-6.622 c -0.417,0 -0.821,0.099 -1.191,0.27 -0.146,0.087 -0.286,0.19 -0.417,0.328 -0.362,0.361 -0.556,0.837 -0.566,1.356 l -0.005,4.546 c 0.539,-0.507 1.232,-0.774 1.978,-0.774 H -2.173 l -5.718,-5.726 h -173.138" />
      </g>
      <g
         transform="matrix(0.35277777,0,0,-0.35277777,136.3088,163.68067)"
         id="g4027">
        <path
           id="path4029"
           style="fill:#ffffff;fill-opacity:1;fill-rule:nonzero;stroke:none"
           d="m 0,0 h -179.727 l 5.708,-5.712 H -1.924 c 0.389,-0.01 0.756,-0.1 1.1,-0.249 0.158,-0.096 0.307,-0.209 0.443,-0.345 0.358,-0.362 0.552,-0.829 0.571,-1.294 v -0.113 7.704 H 0.141 C 0.095,-0.004 0.045,0 0,0" />
      </g>
    </g>
  </g>
</svg>
